<svg width="101" height="101" viewBox="0 0 101 101" fill="none" xmlns="http://www.w3.org/2000/svg">
<path d="M61.999 49.5005L43.249 60.3258L43.249 38.6752L61.999 49.5005Z" fill="#F8B1AB"/>
<path d="M54.2036 8.49927L54.0626 16.8141L55.4664 16.8379L55.387 21.5172L53.8572 21.4913L53.914 18.1437L47.201 18.0298L47.1442 21.3774L45.6324 21.3517L45.7118 16.6724L46.4857 16.6855C47.0506 15.927 47.5207 15.1008 47.8959 14.2071C48.2833 13.3015 48.5754 12.3583 48.772 11.3775C48.9809 10.3849 49.0997 9.39681 49.1284 8.41315L54.2036 8.49927ZM50.5111 9.67879C50.4493 10.4939 50.3089 11.3376 50.0901 12.21C49.8715 13.0704 49.5935 13.8938 49.2561 14.6802C48.9307 15.4668 48.5531 16.1445 48.1234 16.7133L52.5328 16.7881L52.6528 9.71513L50.5111 9.67879Z" fill="#EEEDED"/>
<path d="M64.9581 17.3282C64.906 17.4228 64.8255 17.5566 64.7166 17.7295C64.624 17.8977 64.5174 18.0787 64.3969 18.2727C64.2822 18.4561 64.1704 18.6343 64.0615 18.8072C63.9584 18.9696 63.8726 19.1004 63.8042 19.1998L72.228 14.612L73.9308 15.5497L69.277 24.0011L67.9841 23.2892L70.7278 18.3066C70.8204 18.1384 70.9419 17.9177 71.0924 17.6444C71.2534 17.3769 71.4115 17.1146 71.5668 16.8576C71.7278 16.5901 71.8512 16.3909 71.9369 16.26L63.5534 20.8494L61.8348 19.903L66.4886 11.4516L67.7973 12.1722L64.9581 17.3282Z" fill="#EEEDED"/>
<path d="M85.1843 31.7367C84.6828 32.0661 84.1928 32.1725 83.7143 32.056C83.2359 31.9396 82.7917 31.6785 82.3818 31.273L82.3216 31.3125C82.5808 31.8601 82.6867 32.415 82.6396 32.9772C82.6024 33.5328 82.283 34.0081 81.6811 34.4034C81.3401 34.6273 80.9813 34.7696 80.6048 34.8302C80.2349 34.9009 79.8589 34.875 79.477 34.7525C79.0951 34.6301 78.709 34.4027 78.3185 34.0705C77.9381 33.7317 77.5569 33.2714 77.1749 32.6897L74.8925 29.2141L82.957 23.9181L85.2295 27.3787C85.605 27.9504 85.8757 28.5048 86.0417 29.0418C86.2244 29.5822 86.2509 30.0817 86.1212 30.5401C86.0082 31.0019 85.6959 31.4008 85.1843 31.7367ZM80.782 33.0342C81.2434 32.7312 81.4591 32.3383 81.4292 31.8555C81.3993 31.3727 81.1603 30.7902 80.7124 30.1082L79.4181 28.1372L76.8302 29.8366L78.1443 31.8377C78.5791 32.4997 79.007 32.9437 79.4281 33.1696C79.8593 33.3889 80.3106 33.3438 80.782 33.0342ZM84.1395 30.5064C84.5206 30.256 84.7042 29.9345 84.6903 29.5416C84.693 29.1523 84.4902 28.6466 84.0818 28.0247L82.7281 25.9634L80.5164 27.4159L81.712 29.2364C82.1401 29.8884 82.5564 30.3256 82.961 30.5481C83.3655 30.7706 83.7583 30.7567 84.1395 30.5064Z" fill="#EEEDED"/>
<path d="M85.6478 43.7648C85.5403 43.775 85.3844 43.7838 85.1802 43.7911C84.9891 43.8093 84.7795 43.8232 84.5513 43.8328C84.3352 43.8413 84.125 43.8492 83.9208 43.8565C83.7285 43.8627 83.572 43.8655 83.4515 43.8649L91.9857 48.2437L92.1695 50.1789L82.5647 51.0911L82.4251 49.6217L88.0877 49.084C88.2788 49.0658 88.5297 49.042 88.8403 49.0125C89.152 48.9949 89.4578 48.978 89.7576 48.9615C90.0693 48.944 90.3034 48.9338 90.4598 48.931L81.9469 44.5864L81.7614 42.6332L91.3662 41.721L91.5075 43.2083L85.6478 43.7648Z" fill="#EEEDED"/>
<path d="M86.7183 67.8555L87.8345 64.9099L80.0581 61.9632L80.613 60.4988L88.3894 63.4455L89.4928 60.5336L90.7384 61.0056L87.9639 68.3275L86.7183 67.8555Z" fill="#EEEDED"/>
<path d="M76.9146 74.2221C76.8409 74.1432 76.7387 74.0251 76.6082 73.8679C76.4771 73.7277 76.3381 73.5701 76.1911 73.3954C76.0524 73.2294 75.9178 73.0678 75.7872 72.9106C75.6649 72.7621 75.5671 72.6399 75.4939 72.5441L77.2389 81.976L75.8187 83.3035L69.2304 76.2552L70.3087 75.2473L74.1928 79.4027C74.3239 79.5429 74.496 79.727 74.7091 79.9549C74.9134 80.1911 75.1136 80.4228 75.3097 80.6502C75.5139 80.8863 75.665 81.0654 75.7627 81.1876L74.0038 71.7934L75.4371 70.4536L82.0254 77.5019L80.934 78.5221L76.9146 74.2221Z" fill="#EEEDED"/>
<path d="M58.6937 80.8434C59.509 80.5959 60.2887 80.541 61.0328 80.6787C61.7654 80.82 62.4218 81.185 63.0019 81.7739C63.5705 82.3663 64.0204 83.2078 64.3516 84.2987C64.6968 85.4354 64.788 86.4173 64.6252 87.2443C64.4624 88.0712 64.1101 88.7488 63.5682 89.277C63.0148 89.8087 62.3247 90.2001 61.498 90.4511C61.0272 90.594 60.558 90.6801 60.0902 90.7092C59.626 90.7498 59.2352 90.7431 58.9178 90.689L59.0011 89.2905C59.308 89.3101 59.6592 89.3101 60.0545 89.2904C60.4498 89.2707 60.8082 89.212 61.1298 89.1144C61.7498 88.9262 62.2207 88.639 62.5424 88.2529C62.8641 87.8667 63.0441 87.3857 63.0824 86.8097C63.1207 86.2338 63.0231 85.5611 62.7895 84.7918C62.5664 84.0569 62.2788 83.4608 61.9267 83.0033C61.5746 82.5459 61.1633 82.2444 60.6927 82.0988C60.2221 81.9532 59.694 81.9694 59.1084 82.1472C58.6032 82.3006 58.1768 82.4865 57.8293 82.7048C57.4702 82.9267 57.1526 83.1611 56.8764 83.408L56.4685 82.0646C56.7298 81.8097 57.0376 81.5845 57.3921 81.3891C57.7317 81.1857 58.1655 81.0038 58.6937 80.8434Z" fill="#EEEDED"/>
<path d="M44.2943 87.3443C43.4634 87.2209 42.79 87.0178 42.2739 86.735C41.7579 86.4521 41.3933 86.0886 41.1802 85.6445C40.9535 85.2105 40.885 84.6908 40.9749 84.0855C41.063 83.492 41.2762 82.9959 41.6144 82.5972C41.9407 82.1968 42.4005 81.9193 42.9936 81.7648C43.5867 81.6102 44.3225 81.5981 45.2009 81.7285L49.5274 82.3709L48.1106 91.9143L46.5438 91.6816L47.1253 87.7646L44.2943 87.3443ZM42.555 84.2291C42.4686 84.8107 42.6182 85.2332 43.0037 85.4967C43.3755 85.7703 43.9294 85.9617 44.6653 86.071L47.3183 86.4648L47.7729 83.4024L45.0844 83.0032C44.4197 82.9045 43.856 82.9422 43.3935 83.1161C42.9191 83.2883 42.6395 83.6593 42.555 84.2291Z" fill="#EEEDED"/>
<path d="M17.5504 72.0534C18.0145 71.6731 18.4905 71.5157 18.9786 71.5812C19.4667 71.6467 19.9358 71.8595 20.3861 72.2197L20.4418 72.1741C20.1265 71.6568 19.9627 71.1161 19.9505 70.5521C19.929 69.9957 20.1967 69.4894 20.7536 69.033C21.0692 68.7744 21.411 68.5952 21.779 68.4953C22.1395 68.3861 22.516 68.3723 22.9087 68.4539C23.3014 68.5355 23.7093 68.721 24.1325 69.0103C24.5465 69.3071 24.974 69.7248 25.4151 70.2631L28.0505 73.4793L20.5879 79.5943L17.9639 76.392C17.5304 75.863 17.2028 75.3402 16.9812 74.8236C16.7427 74.3054 16.6639 73.8115 16.7446 73.342C16.8084 72.8708 17.077 72.4413 17.5504 72.0534ZM21.7918 70.3C21.3648 70.6498 21.1916 71.0633 21.2722 71.5403C21.3527 72.0172 21.6516 72.5713 22.1688 73.2025L23.6633 75.0264L26.058 73.0641L24.5407 71.2124C24.0387 70.5997 23.5664 70.2033 23.1239 70.0229C22.672 69.8502 22.228 69.9425 21.7918 70.3ZM18.7189 73.167C18.3662 73.456 18.2174 73.7951 18.2726 74.1843C18.3108 74.5718 18.5658 75.0533 19.0373 75.6288L20.6003 77.5362L22.6469 75.8592L21.2665 74.1745C20.7721 73.5712 20.3121 73.1802 19.8864 73.0015C19.4608 72.8228 19.0716 72.878 18.7189 73.167Z" fill="#EEEDED"/>
<path d="M10.351 61.9695L19.5587 59.0883L20.0318 60.6L10.824 63.4812L10.351 61.9695ZM7.12924 63.7886C7.05757 63.5596 7.07502 63.3341 7.1816 63.1121C7.27315 62.8823 7.48498 62.7154 7.8171 62.6115C8.13777 62.5111 8.40693 62.5275 8.62461 62.6606C8.83869 62.7822 8.98157 62.9575 9.05325 63.1866C9.13208 63.4385 9.11821 63.6755 9.01163 63.8974C8.90505 64.1194 8.69143 64.2805 8.37076 64.3809C8.03864 64.4848 7.77126 64.4742 7.56863 64.349C7.35454 64.2273 7.20808 64.0406 7.12924 63.7886Z" fill="#EEEDED"/>
<path d="M9.02064 43.5994L17.3101 44.2636L17.4222 42.8641L22.0873 43.2378L21.9651 44.763L18.6278 44.4956L18.0915 51.1881L21.4289 51.4555L21.3081 52.9627L16.643 52.5889L16.7049 51.8174C15.9834 51.2058 15.1885 50.6847 14.3201 50.2539C13.4407 49.8103 12.5178 49.4595 11.5513 49.2014C10.5738 48.9305 9.59515 48.7498 8.61525 48.6592L9.02064 43.5994ZM9.96541 47.3589C10.775 47.4719 11.6082 47.6651 12.4651 47.9384C13.3101 48.2107 14.1143 48.54 14.8779 48.9262C15.6425 49.3005 16.2951 49.72 16.8357 50.1846L17.1879 45.7887L10.1365 45.2237L9.96541 47.3589Z" fill="#EEEDED"/>
<path d="M14.531 28.387C14.965 27.6818 15.4893 27.1732 16.104 26.861C16.7251 26.5387 17.3984 26.4176 18.124 26.4977C18.8457 26.5613 19.5796 26.8227 20.3257 27.2818L21.1382 27.7817L17.6763 33.408C18.619 33.9598 19.4739 34.1618 20.2412 34.0139C21.0045 33.8496 21.6377 33.3586 22.1408 32.541C22.4615 32.0197 22.6985 31.5315 22.8518 31.0763C23.0011 30.6046 23.1159 30.0976 23.196 29.5551L24.3765 30.2814C24.3026 30.8137 24.1808 31.3093 24.011 31.7685C23.8514 32.2339 23.5987 32.7476 23.2529 33.3097C22.7749 34.0865 22.192 34.6789 21.5042 35.0869C20.8226 35.4848 20.0664 35.6605 19.2354 35.6142C18.4005 35.5513 17.5283 35.2401 16.6187 34.6804C15.7193 34.127 15.0388 33.504 14.5773 32.8115C14.1221 32.1087 13.8874 31.3796 13.8732 30.6241C13.8653 29.8584 14.0846 29.1127 14.531 28.387ZM15.6254 29.0815C15.2292 29.7254 15.1243 30.3653 15.3107 31.0013C15.4931 31.6208 15.9302 32.1927 16.6221 32.717L19.1972 28.5318C18.7271 28.2425 18.2743 28.0625 17.8387 27.9918C17.4032 27.9211 16.9972 27.9742 16.6206 28.1511C16.2401 28.3115 15.9084 28.6216 15.6254 29.0815Z" fill="#EEEDED"/>
<path d="M34.8826 16.335C35.3011 17.0215 35.5806 17.6873 35.7211 18.3325C35.8655 18.9613 35.8811 19.5631 35.7679 20.1381C35.665 20.7069 35.4321 21.2354 35.0692 21.7237C34.7104 22.1955 34.239 22.6094 33.655 22.9655C33.112 23.2966 32.5537 23.5105 31.9802 23.6072C31.4004 23.6937 30.8291 23.6556 30.2661 23.4929C29.7031 23.3302 29.1649 23.047 28.6516 22.6432C28.1424 22.2228 27.6784 21.6695 27.2599 20.983C26.7039 20.0712 26.389 19.209 26.3153 18.3966C26.2353 17.574 26.3822 16.8238 26.7561 16.1461C27.1237 15.4582 27.7019 14.8737 28.4908 14.3926C29.2388 13.9366 29.9976 13.7058 30.7672 13.7003C31.5409 13.6783 32.2802 13.8881 32.9851 14.3296C33.6941 14.7547 34.3265 15.4232 34.8826 16.335ZM28.6584 20.1302C29.052 20.7757 29.4775 21.2892 29.9351 21.6708C30.3966 22.0359 30.8848 22.2372 31.3996 22.2747C31.9144 22.3122 32.4484 22.1622 33.0016 21.8249C33.5549 21.4875 33.9327 21.0815 34.1351 20.6067C34.3375 20.1319 34.377 19.6088 34.2536 19.0376C34.1341 18.4499 33.8776 17.8332 33.484 17.1878C33.0842 16.5321 32.6566 16.0268 32.2013 15.6719C31.746 15.3171 31.2641 15.126 30.7556 15.0988C30.2511 15.0551 29.7171 15.205 29.1535 15.5486C28.3134 16.0609 27.8725 16.7092 27.8307 17.4936C27.789 18.2781 28.0649 19.1569 28.6584 20.1302Z" fill="#EEEDED"/>
</svg>
